<mxfile host="app.diagrams.net" modified="2023-07-16T15:04:11.339Z" agent="Mozilla/5.0 (Windows NT 10.0; Win64; x64) AppleWebKit/537.36 (KHTML, like Gecko) Chrome/114.0.0.0 Safari/537.36" etag="m4MNKBf0O8o-NKnKRvoK" version="21.6.2" type="device">
  <diagram name="Halaman-1" id="uRLTC7f7d4DSPvs-Ibyc">
    <mxGraphModel dx="1783" dy="479" grid="1" gridSize="10" guides="1" tooltips="1" connect="1" arrows="1" fold="1" page="1" pageScale="1" pageWidth="827" pageHeight="1169" math="0" shadow="0">
      <root>
        <mxCell id="0" />
        <mxCell id="1" parent="0" />
        <mxCell id="zYuoJ8FwZtLTqkUTbTFG-5" style="edgeStyle=orthogonalEdgeStyle;rounded=0;orthogonalLoop=1;jettySize=auto;html=1;" parent="1" source="zYuoJ8FwZtLTqkUTbTFG-1" target="zYuoJ8FwZtLTqkUTbTFG-2" edge="1">
          <mxGeometry relative="1" as="geometry" />
        </mxCell>
        <mxCell id="zYuoJ8FwZtLTqkUTbTFG-1" value="Identifikasi Masalah" style="rounded=0;whiteSpace=wrap;html=1;" parent="1" vertex="1">
          <mxGeometry x="-60" y="120" width="120" height="60" as="geometry" />
        </mxCell>
        <mxCell id="zYuoJ8FwZtLTqkUTbTFG-6" style="edgeStyle=orthogonalEdgeStyle;rounded=0;orthogonalLoop=1;jettySize=auto;html=1;entryX=0.5;entryY=0;entryDx=0;entryDy=0;" parent="1" source="zYuoJ8FwZtLTqkUTbTFG-2" target="zYuoJ8FwZtLTqkUTbTFG-3" edge="1">
          <mxGeometry relative="1" as="geometry" />
        </mxCell>
        <mxCell id="zYuoJ8FwZtLTqkUTbTFG-2" value="Studi Literatur" style="rounded=0;whiteSpace=wrap;html=1;" parent="1" vertex="1">
          <mxGeometry x="-60" y="240" width="120" height="60" as="geometry" />
        </mxCell>
        <mxCell id="zYuoJ8FwZtLTqkUTbTFG-7" style="edgeStyle=orthogonalEdgeStyle;rounded=0;orthogonalLoop=1;jettySize=auto;html=1;" parent="1" source="zYuoJ8FwZtLTqkUTbTFG-3" target="zYuoJ8FwZtLTqkUTbTFG-4" edge="1">
          <mxGeometry relative="1" as="geometry" />
        </mxCell>
        <mxCell id="zYuoJ8FwZtLTqkUTbTFG-3" value="Implementasi Metode Incremental" style="rounded=0;whiteSpace=wrap;html=1;" parent="1" vertex="1">
          <mxGeometry x="-60" y="350" width="120" height="60" as="geometry" />
        </mxCell>
        <mxCell id="zYuoJ8FwZtLTqkUTbTFG-4" value="Pembuatan Laporan" style="rounded=0;whiteSpace=wrap;html=1;" parent="1" vertex="1">
          <mxGeometry x="-60" y="450" width="120" height="60" as="geometry" />
        </mxCell>
        <mxCell id="zYuoJ8FwZtLTqkUTbTFG-8" value="Incremental Model" style="text;html=1;strokeColor=none;fillColor=none;align=center;verticalAlign=middle;whiteSpace=wrap;rounded=0;" parent="1" vertex="1">
          <mxGeometry x="80" y="365" width="120" height="30" as="geometry" />
        </mxCell>
        <mxCell id="zYuoJ8FwZtLTqkUTbTFG-9" value="" style="endArrow=none;dashed=1;html=1;rounded=0;exitX=1;exitY=0.5;exitDx=0;exitDy=0;entryX=0;entryY=0.5;entryDx=0;entryDy=0;" parent="1" source="zYuoJ8FwZtLTqkUTbTFG-3" target="zYuoJ8FwZtLTqkUTbTFG-8" edge="1">
          <mxGeometry width="50" height="50" relative="1" as="geometry">
            <mxPoint x="20" y="390" as="sourcePoint" />
            <mxPoint x="70" y="340" as="targetPoint" />
          </mxGeometry>
        </mxCell>
        <mxCell id="zYuoJ8FwZtLTqkUTbTFG-10" style="edgeStyle=orthogonalEdgeStyle;rounded=0;orthogonalLoop=1;jettySize=auto;html=1;entryX=0;entryY=0.5;entryDx=0;entryDy=0;" parent="1" source="zYuoJ8FwZtLTqkUTbTFG-11" target="zYuoJ8FwZtLTqkUTbTFG-13" edge="1">
          <mxGeometry relative="1" as="geometry" />
        </mxCell>
        <mxCell id="zYuoJ8FwZtLTqkUTbTFG-11" value="Analys" style="rounded=0;whiteSpace=wrap;html=1;" parent="1" vertex="1">
          <mxGeometry x="200" y="330" width="70" height="40" as="geometry" />
        </mxCell>
        <mxCell id="zYuoJ8FwZtLTqkUTbTFG-12" style="edgeStyle=orthogonalEdgeStyle;rounded=0;orthogonalLoop=1;jettySize=auto;html=1;entryX=0;entryY=0.5;entryDx=0;entryDy=0;" parent="1" source="zYuoJ8FwZtLTqkUTbTFG-13" target="zYuoJ8FwZtLTqkUTbTFG-15" edge="1">
          <mxGeometry relative="1" as="geometry" />
        </mxCell>
        <mxCell id="zYuoJ8FwZtLTqkUTbTFG-13" value="&amp;nbsp;Design" style="rounded=0;whiteSpace=wrap;html=1;" parent="1" vertex="1">
          <mxGeometry x="300" y="330" width="70" height="40" as="geometry" />
        </mxCell>
        <mxCell id="zYuoJ8FwZtLTqkUTbTFG-14" style="edgeStyle=orthogonalEdgeStyle;rounded=0;orthogonalLoop=1;jettySize=auto;html=1;entryX=0;entryY=0.5;entryDx=0;entryDy=0;" parent="1" source="zYuoJ8FwZtLTqkUTbTFG-15" target="zYuoJ8FwZtLTqkUTbTFG-16" edge="1">
          <mxGeometry relative="1" as="geometry" />
        </mxCell>
        <mxCell id="zYuoJ8FwZtLTqkUTbTFG-15" value="Code" style="rounded=0;whiteSpace=wrap;html=1;" parent="1" vertex="1">
          <mxGeometry x="400" y="330" width="70" height="40" as="geometry" />
        </mxCell>
        <mxCell id="zYuoJ8FwZtLTqkUTbTFG-16" value="Test" style="rounded=0;whiteSpace=wrap;html=1;" parent="1" vertex="1">
          <mxGeometry x="500" y="330" width="70" height="40" as="geometry" />
        </mxCell>
        <mxCell id="zYuoJ8FwZtLTqkUTbTFG-17" style="edgeStyle=orthogonalEdgeStyle;rounded=0;orthogonalLoop=1;jettySize=auto;html=1;entryX=0;entryY=0.5;entryDx=0;entryDy=0;" parent="1" source="zYuoJ8FwZtLTqkUTbTFG-18" target="zYuoJ8FwZtLTqkUTbTFG-20" edge="1">
          <mxGeometry relative="1" as="geometry" />
        </mxCell>
        <mxCell id="zYuoJ8FwZtLTqkUTbTFG-18" value="Analys" style="rounded=0;whiteSpace=wrap;html=1;" parent="1" vertex="1">
          <mxGeometry x="200" y="390" width="70" height="40" as="geometry" />
        </mxCell>
        <mxCell id="zYuoJ8FwZtLTqkUTbTFG-19" style="edgeStyle=orthogonalEdgeStyle;rounded=0;orthogonalLoop=1;jettySize=auto;html=1;entryX=0;entryY=0.5;entryDx=0;entryDy=0;" parent="1" source="zYuoJ8FwZtLTqkUTbTFG-20" target="zYuoJ8FwZtLTqkUTbTFG-22" edge="1">
          <mxGeometry relative="1" as="geometry" />
        </mxCell>
        <mxCell id="zYuoJ8FwZtLTqkUTbTFG-20" value="&amp;nbsp;Design" style="rounded=0;whiteSpace=wrap;html=1;" parent="1" vertex="1">
          <mxGeometry x="300" y="390" width="70" height="40" as="geometry" />
        </mxCell>
        <mxCell id="zYuoJ8FwZtLTqkUTbTFG-21" style="edgeStyle=orthogonalEdgeStyle;rounded=0;orthogonalLoop=1;jettySize=auto;html=1;entryX=0;entryY=0.5;entryDx=0;entryDy=0;" parent="1" source="zYuoJ8FwZtLTqkUTbTFG-22" target="zYuoJ8FwZtLTqkUTbTFG-23" edge="1">
          <mxGeometry relative="1" as="geometry" />
        </mxCell>
        <mxCell id="zYuoJ8FwZtLTqkUTbTFG-22" value="Code" style="rounded=0;whiteSpace=wrap;html=1;" parent="1" vertex="1">
          <mxGeometry x="400" y="390" width="70" height="40" as="geometry" />
        </mxCell>
        <mxCell id="zYuoJ8FwZtLTqkUTbTFG-23" value="Test" style="rounded=0;whiteSpace=wrap;html=1;" parent="1" vertex="1">
          <mxGeometry x="500" y="390" width="70" height="40" as="geometry" />
        </mxCell>
        <mxCell id="zYuoJ8FwZtLTqkUTbTFG-31" value="Incremental 1&amp;nbsp;" style="text;html=1;strokeColor=none;fillColor=none;align=center;verticalAlign=middle;whiteSpace=wrap;rounded=0;" parent="1" vertex="1">
          <mxGeometry x="570" y="335" width="90" height="30" as="geometry" />
        </mxCell>
        <mxCell id="zYuoJ8FwZtLTqkUTbTFG-32" value="Incremental 2&amp;nbsp;" style="text;html=1;strokeColor=none;fillColor=none;align=center;verticalAlign=middle;whiteSpace=wrap;rounded=0;" parent="1" vertex="1">
          <mxGeometry x="570" y="395" width="90" height="30" as="geometry" />
        </mxCell>
      </root>
    </mxGraphModel>
  </diagram>
</mxfile>
